<svg width="136" height="183" viewBox="0 0 136 183" fill="none" xmlns="http://www.w3.org/2000/svg">
<g opacity="0.8" clip-path="url(#clip0_2234_9590)">
<path d="M39.6313 176.421C41.1034 176.436 42.1965 177.554 42.182 179.031C42.1675 180.508 41.0526 181.605 39.5805 181.591C38.1085 181.576 37.0153 180.458 37.0298 178.981C37.0443 177.504 38.2819 176.408 39.6313 176.421Z" fill="#FFCF2D"/>
<path d="M39.8476 154.39C41.3197 154.405 42.4129 155.523 42.3984 157C42.3839 158.477 41.2689 159.574 39.7968 159.559C38.3248 159.545 37.2316 158.426 37.2461 156.949C37.2594 155.596 38.4982 154.377 39.8476 154.39Z" fill="#FFCF2D"/>
<path d="M40.0624 132.482C41.5345 132.496 42.6277 133.615 42.6132 135.092C42.5987 136.569 41.4838 137.666 40.0117 137.651C38.5396 137.637 37.4464 136.518 37.4609 135.041C37.4754 133.564 38.713 132.469 40.0624 132.482Z" fill="#FFCF2D"/>
<path d="M40.2787 110.451C41.7508 110.465 42.844 111.584 42.8295 113.061C42.815 114.538 41.7001 115.634 40.228 115.62C38.7559 115.606 37.6627 114.487 37.6772 113.01C37.6917 111.533 38.9293 110.437 40.2787 110.451Z" fill="#FFCF2D"/>
<path d="M40.4951 88.4194C41.9671 88.4338 43.0603 89.5524 43.0458 91.0294C43.0313 92.5063 41.9164 93.6032 40.4443 93.5888C38.9722 93.5743 37.879 92.4558 37.8935 90.9788C37.9068 89.6249 39.1457 88.4061 40.4951 88.4194Z" fill="#FFCF2D"/>
<path d="M40.7114 66.3872C42.1834 66.4016 43.2766 67.5202 43.2621 68.9971C43.2476 70.4741 42.1327 71.571 40.6606 71.5565C39.1885 71.5421 38.0953 70.4235 38.1099 68.9466C38.1244 67.4696 39.362 66.3739 40.7114 66.3872Z" fill="#FFCF2D"/>
<path d="M40.9267 44.4789C42.3988 44.4934 43.492 45.612 43.4775 47.0889C43.463 48.5659 42.348 49.6628 40.8759 49.6483C39.4039 49.6339 38.3107 48.5153 38.3252 47.0383C38.3397 45.5614 39.5773 44.4657 40.9267 44.4789Z" fill="#FFCF2D"/>
<path d="M41.143 22.4477C42.6151 22.4622 43.7083 23.5807 43.6938 25.0577C43.6793 26.5347 42.5643 27.6315 41.0922 27.6171C39.6202 27.6026 38.527 26.4841 38.5415 25.0071C38.556 23.5301 39.7936 22.4345 41.143 22.4477Z" fill="#FFCF2D"/>
<path d="M41.3593 0.416474C42.8314 0.430928 43.9246 1.54948 43.9101 3.02644C43.8956 4.50341 42.7806 5.6003 41.3086 5.58584C39.8365 5.57139 38.7433 4.45282 38.7578 2.97585C38.7711 1.62197 40.0099 0.403224 41.3593 0.416474Z" fill="#FFCF2D"/>
<path d="M57.9091 176.601C59.3812 176.615 60.4744 177.734 60.4599 179.211C60.4454 180.688 59.3304 181.785 57.8584 181.77C56.3863 181.756 55.2931 180.637 55.3076 179.16C55.3221 177.683 56.437 176.587 57.9091 176.601Z" fill="#FFCF2D"/>
<path d="M58.1254 154.57C59.5975 154.584 60.6907 155.703 60.6762 157.18C60.6617 158.657 59.5468 159.754 58.0747 159.739C56.6026 159.725 55.5094 158.606 55.5239 157.129C55.5372 155.775 56.6534 154.555 58.1254 154.57Z" fill="#FFCF2D"/>
<path d="M58.3408 132.662C59.8128 132.676 60.906 133.795 60.8915 135.272C60.877 136.749 59.7621 137.845 58.29 137.831C56.8179 137.817 55.7247 136.698 55.7392 135.221C55.7537 133.744 56.8687 132.647 58.3408 132.662Z" fill="#FFCF2D"/>
<path d="M58.5571 110.63C60.0292 110.645 61.1223 111.763 61.1078 113.24C61.0933 114.717 59.9784 115.814 58.5063 115.8C57.0342 115.785 55.9411 114.667 55.9556 113.19C55.9701 111.713 57.085 110.616 58.5571 110.63Z" fill="#FFCF2D"/>
<path d="M58.7734 88.5981C60.2455 88.6125 61.3386 89.7311 61.3241 91.2081C61.3096 92.6851 60.1947 93.7819 58.7226 93.7675C57.2505 93.753 56.1574 92.6345 56.1719 91.1575C56.1852 89.8036 57.3013 88.5836 58.7734 88.5981Z" fill="#FFCF2D"/>
<path d="M58.9897 66.5668C60.4618 66.5813 61.5549 67.6999 61.5404 69.1768C61.5259 70.6538 60.411 71.7507 58.9389 71.7362C57.4669 71.7218 56.3737 70.6032 56.3882 69.1262C56.4027 67.6493 57.5176 66.5524 58.9897 66.5668Z" fill="#FFCF2D"/>
<path d="M59.205 44.6586C60.6771 44.6731 61.7703 45.7917 61.7558 47.2686C61.7413 48.7456 60.6263 49.8425 59.1543 49.828C57.6822 49.8136 56.589 48.695 56.6035 47.218C56.618 45.7411 57.7329 44.6442 59.205 44.6586Z" fill="#FFCF2D"/>
<path d="M59.4213 22.6274C60.8934 22.6418 61.9866 23.7604 61.9721 25.2374C61.9576 26.7143 60.8427 27.8112 59.3706 27.7968C57.8985 27.7823 56.8053 26.6638 56.8198 25.1868C56.8343 23.7098 57.9493 22.6129 59.4213 22.6274Z" fill="#FFCF2D"/>
<path d="M59.6376 0.596147C61.1097 0.610601 62.2029 1.72916 62.1884 3.20612C62.1739 4.68309 61.059 5.77998 59.5869 5.76553C58.1148 5.75107 57.0216 4.6325 57.0361 3.15553C57.0494 1.80165 58.1656 0.581692 59.6376 0.596147Z" fill="#FFCF2D"/>
<path d="M3.19721 176.064C4.66928 176.078 5.76247 177.197 5.74796 178.674C5.73346 180.151 4.61853 181.248 3.14645 181.233C1.67437 181.219 0.581189 180.1 0.595691 178.623C0.610193 177.146 1.72513 176.049 3.19721 176.064Z" fill="#FFCF2D"/>
<path d="M3.41351 154.033C4.88559 154.047 5.97877 155.166 5.96427 156.643C5.94977 158.12 4.83484 159.217 3.36276 159.202C1.89068 159.188 0.797498 158.069 0.812 156.592C0.825293 155.238 1.94144 154.018 3.41351 154.033Z" fill="#FFCF2D"/>
<path d="M3.62885 132.124C5.10092 132.139 6.19411 133.257 6.1796 134.734C6.1651 136.211 5.05017 137.308 3.57809 137.294C2.10601 137.279 1.01404 136.038 1.02733 134.684C1.04183 133.207 2.15677 132.11 3.62885 132.124Z" fill="#FFCF2D"/>
<path d="M3.84516 110.093C5.31723 110.108 6.41042 111.226 6.39591 112.703C6.38141 114.18 5.26648 115.277 3.7944 115.263C2.32232 115.248 1.23035 114.006 1.24364 112.653C1.25693 111.299 2.37308 110.079 3.84516 110.093Z" fill="#FFCF2D"/>
<path d="M4.06146 88.061C5.53354 88.0754 6.62672 89.194 6.61222 90.671C6.59772 92.1479 5.48278 93.2448 4.01071 93.2304C2.53863 93.2159 1.44545 92.0974 1.45995 90.6204C1.47324 89.2665 2.58939 88.0465 4.06146 88.061Z" fill="#FFCF2D"/>
<path d="M4.27777 66.0297C5.74985 66.0442 6.84303 67.1628 6.82853 68.6397C6.81403 70.1167 5.69909 71.2136 4.22702 71.1991C2.75494 71.1847 1.66176 70.0661 1.67626 68.5891C1.69076 67.1122 2.80569 66.0153 4.27777 66.0297Z" fill="#FFCF2D"/>
<path d="M4.49262 44.1215C5.96469 44.136 7.05788 45.2546 7.04337 46.7315C7.02887 48.2085 5.91394 49.3054 4.44186 49.2909C2.96978 49.2765 1.8766 48.1579 1.8911 46.6809C1.9056 45.204 3.02054 44.1071 4.49262 44.1215Z" fill="#FFCF2D"/>
<path d="M4.70892 22.0903C6.181 22.1047 7.27418 23.2233 7.25968 24.7003C7.24518 26.1772 6.13025 27.2741 4.65817 27.2597C3.18609 27.2452 2.09291 26.1267 2.10741 24.6497C2.12191 23.1727 3.23685 22.0758 4.70892 22.0903Z" fill="#FFCF2D"/>
<path d="M4.92523 0.0580756C6.39731 0.0725296 7.49049 1.19108 7.47599 2.66804C7.46149 4.14501 6.34655 5.2419 4.87448 5.22744C3.4024 5.21299 2.30922 4.09442 2.32372 2.61746C2.33701 1.26357 3.45316 0.0436215 4.92523 0.0580756Z" fill="#FFCF2D"/>
<path d="M21.4755 176.244C22.9476 176.258 24.0408 177.377 24.0263 178.854C24.0118 180.331 22.7742 181.426 21.4248 181.413C19.9527 181.399 18.8595 180.28 18.874 178.803C18.8885 177.326 20.0034 176.229 21.4755 176.244Z" fill="#FFCF2D"/>
<path d="M21.6918 154.211C23.1639 154.226 24.2571 155.344 24.2426 156.821C24.2281 158.298 23.1132 159.395 21.6411 159.381C20.169 159.366 19.0758 158.248 19.0903 156.771C19.1036 155.417 20.2198 154.197 21.6918 154.211Z" fill="#FFCF2D"/>
<path d="M21.9072 132.304C23.3792 132.319 24.4724 133.437 24.4579 134.914C24.4434 136.391 23.3285 137.488 21.8564 137.474C20.3843 137.459 19.2911 136.341 19.3057 134.864C19.3202 133.387 20.4351 132.29 21.9072 132.304Z" fill="#FFCF2D"/>
<path d="M22.1235 110.272C23.5956 110.286 24.6887 111.405 24.6742 112.882C24.6597 114.359 23.5448 115.456 22.0727 115.441C20.6006 115.427 19.5075 114.308 19.522 112.831C19.5365 111.354 20.6514 110.257 22.1235 110.272Z" fill="#FFCF2D"/>
<path d="M22.3398 88.2407C23.8119 88.2551 24.905 89.3737 24.8905 90.8507C24.876 92.3276 23.7611 93.4245 22.289 93.4101C20.8169 93.3956 19.7238 92.277 19.7383 90.8001C19.7516 89.4462 20.8677 88.2262 22.3398 88.2407Z" fill="#FFCF2D"/>
<path d="M22.5561 66.2094C24.0282 66.2239 25.1214 67.3424 25.1069 68.8194C25.0923 70.2964 23.9774 71.3933 22.5053 71.3788C21.0333 71.3644 19.9401 70.2458 19.9546 68.7688C19.9691 67.2919 21.084 66.195 22.5561 66.2094Z" fill="#FFCF2D"/>
<path d="M22.7709 44.3012C24.243 44.3157 25.3362 45.4342 25.3217 46.9112C25.3072 48.3882 24.1923 49.4851 22.7202 49.4706C21.2481 49.4562 20.1549 48.3376 20.1694 46.8606C20.1839 45.3837 21.2989 44.2868 22.7709 44.3012Z" fill="#FFCF2D"/>
<path d="M22.9872 22.27C24.4593 22.2844 25.5525 23.403 25.538 24.88C25.5235 26.3569 24.4086 27.4538 22.9365 27.4394C21.4644 27.4249 20.3712 26.3063 20.3857 24.8294C20.4002 23.3524 21.5152 22.2555 22.9872 22.27Z" fill="#FFCF2D"/>
<path d="M23.2036 0.237748C24.6756 0.252202 25.7688 1.37076 25.7543 2.84772C25.7398 4.32469 24.6249 5.42158 23.1528 5.40713C21.6807 5.39268 20.5875 4.2741 20.602 2.79714C20.6153 1.44325 21.7315 0.223294 23.2036 0.237748Z" fill="#FFCF2D"/>
<path d="M76.0654 176.78C77.5374 176.794 78.6306 177.913 78.6161 179.39C78.6016 180.867 77.4867 181.964 76.0146 181.949C74.5425 181.935 73.4494 180.816 73.4639 179.339C73.4784 177.862 74.716 176.766 76.0654 176.78Z" fill="#FFCF2D"/>
<path d="M76.2817 154.748C77.7538 154.762 78.8469 155.881 78.8324 157.357C78.8179 158.834 77.703 159.931 76.2309 159.917C74.7588 159.902 73.6657 158.784 73.6802 157.307C73.6935 155.953 74.9323 154.734 76.2817 154.748Z" fill="#FFCF2D"/>
<path d="M76.4965 132.839C77.9686 132.854 79.0618 133.972 79.0473 135.449C79.0328 136.926 77.9178 138.023 76.4458 138.009C74.9737 137.994 73.8805 136.876 73.895 135.399C73.9095 133.922 75.1471 132.826 76.4965 132.839Z" fill="#FFCF2D"/>
<path d="M76.7128 110.808C78.1849 110.822 79.2781 111.941 79.2636 113.418C79.2491 114.895 78.1341 115.992 76.6621 115.977C75.19 115.963 74.0968 114.844 74.1113 113.367C74.1258 111.89 75.3634 110.795 76.7128 110.808Z" fill="#FFCF2D"/>
<path d="M76.9291 88.7768C78.4012 88.7913 79.4944 89.9098 79.4799 91.3868C79.4654 92.8638 78.3505 93.9606 76.8784 93.9462C75.4063 93.9317 74.3131 92.8132 74.3276 91.3362C74.3409 89.9823 75.5797 88.7636 76.9291 88.7768Z" fill="#FFCF2D"/>
<path d="M77.1454 66.7456C78.6175 66.76 79.7107 67.8786 79.6962 69.3555C79.6817 70.8325 78.5668 71.9294 77.0947 71.9149C75.6226 71.9005 74.5294 70.7819 74.5439 69.305C74.5584 67.828 75.796 66.7323 77.1454 66.7456Z" fill="#FFCF2D"/>
<path d="M77.3608 44.8373C78.8329 44.8518 79.926 45.9704 79.9115 47.4473C79.897 48.9243 78.7821 50.0212 77.31 50.0067C75.8379 49.9923 74.7448 48.8737 74.7593 47.3967C74.7738 45.9198 76.0114 44.8241 77.3608 44.8373Z" fill="#FFCF2D"/>
<path d="M77.5771 22.8051C79.0492 22.8196 80.1423 23.9381 80.1278 25.4151C80.1133 26.8921 78.9984 27.989 77.5263 27.9745C76.0543 27.9601 74.9611 26.8415 74.9756 25.3645C74.9901 23.8876 76.2277 22.7919 77.5771 22.8051Z" fill="#FFCF2D"/>
<path d="M77.7934 0.773881C79.2655 0.788335 80.3586 1.90689 80.3441 3.38386C80.3296 4.86082 79.2147 5.95772 77.7426 5.94326C76.2706 5.92881 75.1774 4.81024 75.1919 3.33327C75.2052 1.97938 76.444 0.760631 77.7934 0.773881Z" fill="#FFCF2D"/>
<path d="M94.3432 176.958C95.8153 176.973 96.9085 178.091 96.894 179.568C96.8794 181.045 95.7645 182.142 94.2924 182.128C92.8204 182.113 91.7272 180.995 91.7417 179.518C91.7562 178.041 92.8711 176.944 94.3432 176.958Z" fill="#FFCF2D"/>
<path d="M94.5595 154.927C96.0316 154.942 97.1248 156.06 97.1103 157.537C97.0958 159.014 95.9808 160.111 94.5087 160.097C93.0367 160.082 91.9435 158.964 91.958 157.487C91.9713 156.133 93.0874 154.913 94.5595 154.927Z" fill="#FFCF2D"/>
<path d="M94.7748 133.019C96.2469 133.033 97.3401 134.152 97.3256 135.629C97.3111 137.106 96.1962 138.203 94.7241 138.188C93.252 138.174 92.1588 137.055 92.1733 135.578C92.1878 134.101 93.3028 133.005 94.7748 133.019Z" fill="#FFCF2D"/>
<path d="M97.5419 113.598C97.5559 112.17 96.4139 111.002 94.9911 110.988C93.5684 110.974 92.4037 112.12 92.3896 113.547C92.3756 114.975 93.5176 116.143 94.9404 116.157C96.3631 116.171 97.5279 115.025 97.5419 113.598Z" fill="#FFCF2D"/>
<path d="M95.2075 88.9565C96.6795 88.9709 97.7727 90.0895 97.7582 91.5665C97.7437 93.0434 96.6288 94.1403 95.1567 94.1259C93.6846 94.1114 92.5914 92.9929 92.6059 91.5159C92.6192 90.162 93.7354 88.942 95.2075 88.9565Z" fill="#FFCF2D"/>
<path d="M95.4238 66.9243C96.8958 66.9387 97.989 68.0573 97.9745 69.5343C97.96 71.0112 96.8451 72.1081 95.373 72.0937C93.9009 72.0792 92.8078 70.9606 92.8223 69.4837C92.8368 68.0067 93.9517 66.9098 95.4238 66.9243Z" fill="#FFCF2D"/>
<path d="M95.6386 45.0161C97.1107 45.0305 98.2039 46.1491 98.1894 47.626C98.1749 49.103 97.0599 50.1999 95.5879 50.1855C94.1158 50.171 93.0226 49.0524 93.0371 47.5755C93.0516 46.0985 94.1665 45.0016 95.6386 45.0161Z" fill="#FFCF2D"/>
<path d="M98.4062 25.5948C98.4202 24.1673 97.2782 22.9988 95.8554 22.9848C94.4326 22.9708 93.2679 24.1167 93.2539 25.5442C93.2399 26.9717 94.3819 28.1402 95.8046 28.1542C97.2274 28.1682 98.3921 27.0223 98.4062 25.5948Z" fill="#FFCF2D"/>
<path d="M96.0717 0.953568C97.5438 0.968022 98.637 2.08658 98.6225 3.56354C98.608 5.04051 97.493 6.1374 96.021 6.12295C94.5489 6.1085 93.4557 4.98992 93.4702 3.51296C93.4835 2.15907 94.5996 0.939114 96.0717 0.953568Z" fill="#FFCF2D"/>
<path d="M112.622 177.138C114.094 177.153 115.187 178.271 115.172 179.748C115.158 181.225 114.043 182.322 112.571 182.308C111.099 182.293 110.006 181.175 110.02 179.698C110.035 178.221 111.149 177.124 112.622 177.138Z" fill="#FFCF2D"/>
<path d="M112.838 155.107C114.31 155.121 115.403 156.24 115.389 157.717C115.374 159.194 114.259 160.291 112.787 160.276C111.315 160.262 110.222 159.143 110.236 157.666C110.25 156.312 111.366 155.092 112.838 155.107Z" fill="#FFCF2D"/>
<path d="M113.053 133.199C114.525 133.213 115.618 134.332 115.604 135.809C115.589 137.286 114.474 138.383 113.002 138.368C111.53 138.354 110.437 137.235 110.452 135.758C110.466 134.281 111.581 133.184 113.053 133.199Z" fill="#FFCF2D"/>
<path d="M113.269 111.167C114.742 111.182 115.835 112.3 115.82 113.777C115.806 115.254 114.691 116.351 113.219 116.337C111.747 116.322 110.653 115.204 110.668 113.727C110.682 112.25 111.797 111.153 113.269 111.167Z" fill="#FFCF2D"/>
<path d="M113.486 89.1352C114.958 89.1497 116.051 90.2682 116.037 91.7452C116.022 93.2222 114.907 94.319 113.435 94.3046C111.963 94.2901 110.87 93.1716 110.884 91.6946C110.898 90.3407 112.014 89.1207 113.486 89.1352Z" fill="#FFCF2D"/>
<path d="M113.702 67.104C115.174 67.1184 116.267 68.237 116.253 69.7139C116.238 71.1909 115.123 72.2878 113.651 72.2733C112.179 72.2589 111.086 71.1403 111.101 69.6634C111.115 68.1864 112.23 67.0895 113.702 67.104Z" fill="#FFCF2D"/>
<path d="M113.917 45.1958C115.39 45.2102 116.483 46.3288 116.468 47.8057C116.454 49.2827 115.339 50.3796 113.867 50.3651C112.395 50.3507 111.301 49.2321 111.316 47.7551C111.33 46.2782 112.445 45.1813 113.917 45.1958Z" fill="#FFCF2D"/>
<path d="M114.134 23.1645C115.606 23.1789 116.699 24.2975 116.684 25.7745C116.67 27.2515 115.555 28.3483 114.083 28.3339C112.611 28.3194 111.518 27.2009 111.532 25.7239C111.547 24.2469 112.662 23.15 114.134 23.1645Z" fill="#FFCF2D"/>
<path d="M114.35 1.13326C115.822 1.14771 116.915 2.26626 116.901 3.74323C116.886 5.2202 115.771 6.31709 114.299 6.30264C112.827 6.28818 111.734 5.16961 111.749 3.69264C111.762 2.33876 112.878 1.1188 114.35 1.13326Z" fill="#FFCF2D"/>
<path d="M130.777 177.317C132.249 177.331 133.343 178.45 133.328 179.927C133.314 181.404 132.199 182.501 130.727 182.486C129.254 182.472 128.161 181.353 128.176 179.876C128.19 178.399 129.428 177.304 130.777 177.317Z" fill="#FFCF2D"/>
<path d="M130.994 155.285C132.466 155.299 133.559 156.418 133.544 157.895C133.53 159.372 132.415 160.468 130.943 160.454C129.471 160.44 128.378 159.321 128.392 157.844C128.405 156.49 129.644 155.271 130.994 155.285Z" fill="#FFCF2D"/>
<path d="M131.209 133.377C132.681 133.392 133.774 134.51 133.76 135.987C133.745 137.464 132.63 138.561 131.158 138.547C129.686 138.532 128.593 137.414 128.607 135.937C128.622 134.46 129.86 133.364 131.209 133.377Z" fill="#FFCF2D"/>
<path d="M131.425 111.345C132.897 111.36 133.99 112.478 133.976 113.955C133.961 115.432 132.847 116.529 131.374 116.515C129.902 116.5 128.809 115.382 128.824 113.905C128.838 112.428 130.076 111.332 131.425 111.345Z" fill="#FFCF2D"/>
<path d="M131.642 89.3139C133.114 89.3284 134.207 90.4469 134.192 91.9239C134.178 93.4009 133.063 94.4978 131.591 94.4833C130.119 94.4688 129.026 93.3503 129.04 91.8733C129.053 90.5194 130.292 89.3007 131.642 89.3139Z" fill="#FFCF2D"/>
<path d="M131.858 67.2827C133.33 67.2971 134.423 68.4157 134.409 69.8927C134.394 71.3696 133.279 72.4665 131.807 72.4521C130.335 72.4376 129.242 71.319 129.256 69.8421C129.271 68.3651 130.508 67.2694 131.858 67.2827Z" fill="#FFCF2D"/>
<path d="M132.073 45.3745C133.545 45.3889 134.638 46.5075 134.623 47.9844C134.609 49.4614 133.494 50.5583 132.022 50.5438C130.55 50.5294 129.457 49.4108 129.471 47.9339C129.486 46.4569 130.723 45.3612 132.073 45.3745Z" fill="#FFCF2D"/>
<path d="M132.289 23.3422C133.761 23.3567 134.854 24.4753 134.84 25.9522C134.825 27.4292 133.71 28.5261 132.238 28.5116C130.766 28.4972 129.673 27.3786 129.687 25.9016C129.702 24.4247 130.94 23.329 132.289 23.3422Z" fill="#FFCF2D"/>
<path d="M132.505 1.31099C133.977 1.32544 135.071 2.444 135.056 3.92097C135.042 5.39793 133.927 6.49483 132.455 6.48037C130.982 6.46592 129.889 5.34735 129.904 3.87038C129.917 2.51649 131.156 1.29774 132.505 1.31099Z" fill="#FFCF2D"/>
</g>
<defs>
<clipPath id="clip0_2234_9590">
<rect width="181.184" height="132.739" fill="white" transform="translate(0.570312 181.208) rotate(-89.4374)"/>
</clipPath>
</defs>
</svg>
